<svg width="29" height="29" viewBox="0 0 29 29" fill="none" xmlns="http://www.w3.org/2000/svg">
<g id="Frame">
<path id="Vector" fill-rule="evenodd" clip-rule="evenodd" d="M24.8351 7.77913C25.1954 8.14229 25.455 8.59418 25.588 9.08986C26.3543 12.1987 26.1772 17.1086 25.6029 20.3374C25.4699 20.8331 25.2102 21.285 24.85 21.6481C24.4897 22.0112 24.0414 22.2728 23.5496 22.4069C21.7492 22.9018 14.5031 22.9018 14.5031 22.9018C14.5031 22.9018 7.25706 22.9018 5.45672 22.4069C4.96494 22.2728 4.51659 22.0112 4.15634 21.6481C3.79609 21.285 3.53649 20.8331 3.40342 20.3374C2.63269 17.2421 2.84397 12.3292 3.38854 9.10487C3.52162 8.60919 3.7812 8.15729 4.14146 7.79414C4.50172 7.43106 4.95006 7.16941 5.44184 7.03528C7.24221 6.54039 14.4883 6.52539 14.4883 6.52539C14.4883 6.52539 21.7344 6.52539 23.5348 7.02028C24.0265 7.15441 24.4749 7.41605 24.8351 7.77913ZM17.9545 14.7138L12.4957 18.1255V11.302L17.9545 14.7138Z" fill="white"/>
</g>
</svg>
